# AST/ASF file generated using VICON BodyLanguage
# -----------------------------------------------
:version 1.10
:name VICON
:units
  mass 1.0
  length 0.45
  angle deg
:documentation
   .ast/.asf automatically generated from VICON data using
   VICON BodyBuilder and BodyLanguage model FoxedUp or BRILLIANT.MOD
:root
   order TX TY TZ RX RY RZ
   axis XYZ
   position 0 0 0  
   orientation 0 0 0 
:bonedata
  begin
     id 1 
     name lhipjoint
     direction 0.589753 -0.68606 0.426044 
     length 2.54082 
     axis 0 0 0  XYZ
  end
  begin
     id 2 
     name lfemur
     direction 0.34202 -0.939693 0  
     length 7.04539  
     axis 0 0 20  XYZ
    dof rx ry rz
    limits (-160.0 20.0)
           (-70.0 70.0)
           (-60.0 70.0)
  end
  begin
     id 3 
     name ltibia
     direction 0.34202 -0.939693 0   
     length 7.83772   
     axis 0 0 20   XYZ
    dof rx
    limits (-10.0 170.0)
  end
  begin
     id 4 
     name lfoot
     direction 0.0596604 -0.163915 0.984669   
     length 2.39542   
     axis -90 7.62852e-016 20   XYZ
    dof rx rz
    limits (-45.0 90.0)
           (-70.0 20.0)
  end
  begin
     id 5 
     name ltoes
     direction 1.53514e-011 -4.21954e-011 1   
     length 1.2047   
     axis -90 7.62852e-016 20   XYZ
    dof rx
    limits (-90.0 20.0)
  end
  begin
     id 6 
     name rhipjoint
     direction -0.580585 -0.69168 0.429534   
     length 2.52018  
     axis 0 0 0  XYZ 
  end
  begin
     id 7 
     name rfemur
     direction -0.34202 -0.939693 0   
     length 7.0101   
     axis 0 0 -20   XYZ
    dof rx ry rz
    limits (-160.0 20.0)
           (-70.0 70.0)
           (-70.0 60.0)
  end
  begin
     id 8 
     name rtibia
     direction -0.34202 -0.939693 0   
     length 7.70628   
     axis 0 0 -20   XYZ
    dof rx
    limits (-10.0 170.0)
 end
 begin
     id 9 
     name rfoot
     direction -0.0696237 -0.19129 0.979061   
     length 2.52466  
     axis -90 -7.62852e-016 -20   XYZ
    dof rx rz
    limits (-45.0 90.0)
           (-20.0 70.0)
  end
  begin
     id 10 
     name rtoes
     direction -1.53519e-011 -4.21793e-011 1   
     length 1.266   
     axis -90 -7.62852e-016 -20   XYZ
    dof rx
    limits (-90.0 20.0)
  end
  begin
     id 11 
     name lowerback
     direction 0.00381965 0.995707 -0.0924856   
     length 2.20825   
     axis 0 0 0   XYZ
    dof rx ry rz
    limits (-20.0 45.0)
           (-30.0 30.0)
           (-30.0 30.0)
  end
  begin
     id 12 
     name upperback
     direction -0.0139043 0.999634 -0.0231929   
     length 2.21517   
     axis 0 0 0   XYZ
    dof rx ry rz
    limits (-20.0 45.0)
           (-30.0 30.0)
           (-30.0 30.0)
  end
  begin
     id 13 
     name thorax
     direction -0.0143933 0.999691 0.0202892   
     length 2.22911   
     axis 0 0 0   XYZ
    dof rx ry rz
    limits (-20.0 45.0)
           (-30.0 30.0)
           (-30.0 30.0)
  end
  begin
     id 14 
     name lowerneck
     direction -0.0251153 0.981819 0.188153   
     length 1.61782   
     axis 0 0 0   XYZ
    dof rx ry rz
    limits (-20.0 45.0)
           (-30.0 30.0)
           (-30.0 30.0)
  end
  begin
     id 15 
     name upperneck
     direction 0.0563891 0.969357 -0.239095   
     length 1.64526   
     axis 0 0 0   XYZ
    dof rx ry rz
    limits (-20.0 45.0)
           (-30.0 30.0)
           (-30.0 30.0)
  end
  begin
     id 16
     name head
     direction 0.0208328 0.99459 -0.101773  
     length 1.67436  
     axis 0 0 0   XYZ
    dof rx ry rz
    limits (-20.0 45.0)
           (-30.0 30.0)
           (-30.0 30.0)
  end
  begin
     id 17 
     name lclavicle
     direction 0.917689 0.397224 0.00772059  
     length 3.31102  
     axis 0 0 0   XYZ
    dof ry rz
    limits (-20.0 10.0)
           (0.0 20.0)
  end
  begin
     id 18 
     name lhumerus
     direction 1 -4.4896e-011 2.32308e-027   
     length 5.25537   
     axis 180 -30 -90   XYZ
    dof rx ry rz
    limits (-60.0 90.0)
           (-90.0 90.0)
           (-90.0 90.0)
  end
  begin
     id 19
     name lradius
     direction 1 -4.49005e-011 -2.04271e-027   
     length 3.38855   
     axis 180 -30 -90   XYZ
    dof rx
    limits (-10.0 170.0)
  end
  begin
     id 20
     name lwrist
     direction 1 -4.48892e-011 2.56952e-028   
     length 1.69428   
     axis -5.12785e-016 90 90   XYZ
    dof ry
    limits (-180.0 0.0)
 end
  begin
     id 21 
     name lhand
     direction 1 -4.48966e-011 5.13905e-028   
     length 0.614516   
     axis -3.27915e-016 90 90   XYZ
    dof rx rz
    limits (-90.0 90.0)
           (-45.0 45.0)
  end
  begin
     id 22 
     name lfingers
     direction 1 -4.48979e-011 1.02781e-027   
     length 0.495439   
     axis -6.5583e-016 90 90   XYZ
    dof rx
    limits (0.0 90.0)
  end
  begin
     id 23
     name lthumb
     direction 0.707107 -6.35001e-011 0.707107   
     length 0.711354   
     axis -90 45 2.85299e-015   XYZ
    dof rx rz
    limits (-45.0 45.0)
           (-45.0 45.0)
  end
  begin
     id 24 
     name rclavicle
     direction -0.938556 0.342765 -0.0403177   
     length 3.27019  
     axis 0 0 0   XYZ 
    dof ry rz
    limits (-10.0 20.0)
           (-20.0 0.0)
  end
  begin
     id 25 
     name rhumerus
     direction -1 -4.48966e-011 2.52291e-027  
     length 5.38183   
     axis 180 30 90   XYZ
    dof rx ry rz
    limits (-90.0 60.0)
           (-90.0 90.0)
           (-90.0 90.0)
  end
  begin
     id 26 
     name rradius
     direction -1 -4.4896e-011 1.5797e-027   
     length 3.16988   
     axis 180 30 90   XYZ
    dof rx
    limits (-10.0 170.0)
  end
  begin
     id 27 
     name rwrist
     direction -1 -4.48947e-011 2.56952e-028   
     length 1.58494   
     axis -5.12785e-016 -90 -90   XYZ
    dof ry
    limits (-180.0 0.0)
  end
  begin
     id 28
     name rhand
     direction -1 -4.49098e-011 5.13905e-028   
     length 0.637679   
     axis -3.27915e-016 -90 -90   XYZ
    dof rx rz
    limits (-90.0 90.0)
           (-45.0 45.0)
  end
  begin
     id 29
     name rfingers
     direction -1 -4.49026e-011 1.02781e-027   
     length 0.514113   
     axis -6.5583e-016 -90 -90   XYZ
    dof rx
    limits (0.0 90.0)
  end
  begin
     id 30
     name rthumb
     direction -0.707107 -6.3491e-011 0.707107   
     length 0.738167   
     axis -90 -45 -2.85299e-015   XYZ
    dof rx rz
    limits (-45.0 45.0)
           (-45.0 45.0)
  end
:hierarchy
  begin
    root lhipjoint rhipjoint lowerback
    lhipjoint lfemur
    lfemur ltibia
    ltibia lfoot
    lfoot ltoes
    rhipjoint rfemur
    rfemur rtibia
    rtibia rfoot
    rfoot rtoes
    lowerback upperback
    upperback thorax
    thorax lowerneck lclavicle rclavicle
    lowerneck upperneck
    upperneck head
    lclavicle lhumerus
    lhumerus lradius
    lradius lwrist
    lwrist lhand lthumb
    lhand lfingers
    rclavicle rhumerus
    rhumerus rradius
    rradius rwrist
    rwrist rhand rthumb
    rhand rfingers
  end

#!OML:ASF H:\Swim\Project 1\Capture day 1\Session 1\swimmer.ASF
:FULLY-SPECIFIED
:DEGREES
3969
root 6.55479 11.7934 21.0713 85.1997 -7.55827 -15.1697
lowerback 4.64124 -9.98344 -6.99894
upperback -3.78245 -14.0095 0.0146872
thorax -4.88715 -6.71816 4.82679
lowerneck -18.4527 5.84624 -13.7332
upperneck 8.72815 9.74774 12.8955
head 4.25243 5.32676 7.07669
rclavicle -5.40694e-014 -2.54444e-014
rhumerus 348.127 -21.4259 369.49
rradius 132.197
rwrist -41.4895
rhand 9.03588 -6.1017
rfingers 7.12502
rthumb 34.2113 -392.838
lclavicle -5.40694e-014 -2.54444e-014
lhumerus 25.3087 -4.00126 -5.01195
lradius 33.9132
lwrist -0.288407
lhand -22.932 -698.387
lfingers 7.12502
lthumb 3.50872 51.5641
rfemur -16.5342 7.75559 23.3395
rtibia 44.2197
rfoot 10.8673 -1.95458
rtoes 0.379326
lfemur -13.2829 -9.99507 -23.4614
ltibia 31.8752
lfoot -8.01615 22.5065
ltoes 18.2988
3970
root 6.55217 11.7906 21.0642 84.9534 -7.35936 -15.1843
lowerback 4.88802 -9.76462 -7.04872
upperback -3.69301 -13.7305 -0.0644679
thorax -4.97163 -6.57167 4.80458
lowerneck -18.1594 5.8174 -13.4855
upperneck 8.62088 9.60465 13.012
head 4.1993 5.26796 7.04966
rclavicle 5.08889e-014 2.14687e-014
rhumerus 349.559 -22.1734 370.256
rradius 131.186
rwrist -40.9679
rhand 8.6321 -5.97359
rfingers 7.12502
rthumb 33.8278 -392.795
lclavicle 5.08889e-014 2.14687e-014
lhumerus 25.2652 -5.35791 -4.95293
lradius 34.7683
lwrist 0.0540751
lhand -23.843 -698.382
lfingers 7.12502
lthumb 2.629 51.5819
rfemur -15.8273 7.58923 23.4758
rtibia 44.1417
rfoot 11.1775 -2.20257
rtoes 0.346758
lfemur -13.5604 -12.2928 -23.1798
ltibia 32.0016
lfoot -11.3847 24.2424
ltoes 19.7857
3971
root 6.54843 11.7883 21.0569 84.7253 -7.15935 -15.2004
lowerback 5.11374 -9.53226 -7.08207
upperback -3.60943 -13.4321 -0.151928
thorax -5.05841 -6.41661 4.75995
lowerneck -17.8537 5.76571 -13.2288
upperneck 8.52971 9.42942 13.1074
head 4.15492 5.19056 7.0133
rclavicle 4.77083e-014 -1.74931e-014
rhumerus 351.054 -22.839 370.954
rradius 130.076
rwrist -40.3914
rhand 8.34863 -5.84634
rfingers 7.12502
rthumb 33.5584 -392.727
lclavicle 4.77083e-014 -1.74931e-014
lhumerus 25.3284 -6.73915 -4.91833
lradius 35.5675
lwrist 0.354068
lhand -24.5838 -698.356
lfingers 7.12502
lthumb 1.91351 51.6155
rfemur -15.1835 7.42841 23.601
rtibia 44.0449
rfoot 11.4963 -2.49296
rtoes 0.411437
lfemur -13.8161 -14.3356 -22.8989
ltibia 32.1494
lfoot -14.5893 25.7183
ltoes 21.3952
3972
root 6.54344 11.7865 21.05 84.5178 -6.96386 -15.2159
lowerback 5.32421 -9.28366 -7.11105
upperback -3.54524 -13.1132 -0.239861
thorax -5.16054 -6.25098 4.70917
lowerneck -17.5158 5.69258 -12.9743
upperneck 8.45372 9.22523 13.1711
head 4.11509 5.09453 6.96492
rclavicle -9.22361e-014 1.51076e-014
rhumerus 352.624 -23.4342 371.599
rradius 128.869
rwrist -39.829
rhand 8.22675 -5.74512
rfingers 7.12502
rthumb 33.4426 -392.651
lclavicle -9.22361e-014 1.51076e-014
lhumerus 25.4921 -8.16305 -4.89986
lradius 36.3207
lwrist 0.626811
lhand -25.1194 -698.304
lfingers 7.12502
lthumb 1.3963 51.671
rfemur -14.6183 7.2809 23.7116
rtibia 43.9413
rfoot 11.846 -2.81387
rtoes 0.718929
lfemur -14.0399 -16.0018 -22.6263
ltibia 32.3022
lfoot -17.3862 26.8617
ltoes 22.7484
3973
root 6.53718 11.7855 21.0438 84.327 -6.78218 -15.2267
lowerback 5.51921 -9.02006 -7.15268
upperback -3.495 -12.7759 -0.32685
thorax -5.26791 -6.07572 4.66121
lowerneck -17.1551 5.60217 -12.7132
upperneck 8.38803 8.99823 13.1945
head 4.07962 4.98311 6.90093
rclavicle 1.01778e-013 -2.70347e-014
rhumerus 354.276 -23.9802 372.193
rradius 127.561
rwrist -39.3326
rhand 8.2554 -5.68644
rfingers 7.12502
rthumb 33.4698 -392.586
lclavicle 1.01778e-013 -2.70347e-014
lhumerus 25.7348 -9.62171 -4.9031
lradius 37.0705
lwrist 0.967332
lhand -25.427 -698.238
lfingers 7.12502
lthumb 1.09915 51.739
rfemur -14.141 7.16609 23.8029
rtibia 43.844
rfoot 12.2196 -3.15398
rtoes 1.27316
lfemur -14.2152 -17.1253 -22.3747
ltibia 32.4418
lfoot -19.4162 27.6471
ltoes 23.5233
3974
root 6.52974 11.7852 21.0377 84.1454 -6.61392 -15.2275
lowerback 5.70457 -8.74066 -7.21645
upperback -3.45273 -12.4196 -0.41185
thorax -5.37548 -5.89037 4.62218
lowerneck -16.7683 5.49456 -12.4654
upperneck 8.30982 8.75063 13.2199
head 4.03761 4.8603 6.8372
rclavicle -1.01778e-013 -1.66979e-014
rhumerus 356.001 -24.4948 372.739
rradius 126.149
rwrist -38.956
rhand 8.4478 -5.66722
rfingers 7.12502
rthumb 33.6527 -392.527
lclavicle -1.01778e-013 -1.66979e-014
lhumerus 26.0504 -11.1127 -4.92811
lradius 37.8497
lwrist 1.4526
lhand -25.5248 -698.18
lfingers 7.12502
lthumb 1.00474 51.797
rfemur -13.7528 7.08806 23.8796
rtibia 43.7592
rfoot 12.6064 -3.48721
rtoes 2.00372
lfemur -14.3241 -17.632 -22.1502
ltibia 32.559
lfoot -20.4576 28.1079
ltoes 23.6228
3975
root 6.52125 11.7855 21.0308 83.9661 -6.4491 -15.2122
lowerback 5.88537 -8.44736 -7.29119
upperback -3.41429 -12.0462 -0.496525
thorax -5.48444 -5.69623 4.58537
lowerneck -16.3634 5.37395 -12.2149
upperneck 8.22198 8.48532 13.2493
head 3.99142 4.72831 6.77263
rclavicle 8.90555e-014 -2.8625e-014
rhumerus 357.799 -24.9828 373.236
rradius 124.622
rwrist -38.7341
rhand 8.78128 -5.69072
rfingers 7.12502
rthumb 33.9695 -392.481
lclavicle 8.90555e-014 -2.8625e-014
lhumerus 26.4307 -12.6292 -4.97215
lradius 38.6855
lwrist 2.13243
lhand -25.447 -698.173
lfingers 7.12502
lthumb 1.07982 51.8045
rfemur -13.4498 7.06105 23.9587
rtibia 43.6886
rfoot 12.9922 -3.80305
rtoes 2.82304
lfemur -14.3552 -17.5193 -21.9488
ltibia 32.6527
lfoot -20.454 28.2732
ltoes 23.1438
3976
root 6.51191 11.7861 21.0225 83.7956 -6.30097 -15.1712
lowerback 6.04717 -8.14215 -7.39145
upperback -3.37621 -11.6581 -0.58408
thorax -5.58074 -5.49487 4.55212
lowerneck -15.9487 5.24244 -11.9352
upperneck 8.12508 8.20275 13.2596
head 3.94458 4.58677 6.69608
rclavicle 9.54166e-015 6.36111e-015
rhumerus 359.656 -25.4486 373.686
rradius 122.973
rwrist -38.6911
rhand 9.22766 -5.7588
rfingers 7.12502
rthumb 34.3934 -392.454
lclavicle 9.54166e-015 6.36111e-015
lhumerus 26.8756 -14.1597 -5.02386
lradius 39.588
lwrist 3.03653
lhand -25.2378 -698.231
lfingers 7.12502
lthumb 1.28185 51.7449
rfemur -13.2457 7.05125 24.0206
rtibia 43.6355
rfoot 13.3594 -4.0498
rtoes 3.49327
lfemur -14.3126 -16.869 -21.7881
ltibia 32.7248
lfoot -19.5746 28.1142
ltoes 22.3963
3977
root 6.50183 11.7867 21.0131 83.6306 -6.1541 -15.1029
lowerback 6.19338 -7.82758 -7.49053
upperback -3.33628 -11.2571 -0.678772
thorax -5.66986 -5.28798 4.50524
lowerneck -15.5568 5.09988 -11.6399
upperneck 8.04413 7.9041 13.2907
head 3.90734 4.43921 6.62515
rclavicle -1.30403e-013 -2.14687e-014
rhumerus 361.555 -25.8733 374.08
rradius 121.203
rwrist -38.8002
rhand 9.70726 -5.87802
rfingers 7.12502
rthumb 34.8486 -392.469
lclavicle -1.30403e-013 -2.14687e-014
lhumerus 27.3942 -15.7155 -5.09729
lradius 40.5559
lwrist 4.17882
lhand -24.9686 -698.346
lfingers 7.12502
lthumb 1.54193 51.6277
rfemur -13.1326 7.06522 24.0837
rtibia 43.5946
rfoot 13.6843 -4.23294
rtoes 4.07671
lfemur -14.2001 -15.8122 -21.656
ltibia 32.7845
lfoot -17.9688 27.7021
ltoes 21.3302
3978
root 6.49087 11.7871 21.0031 83.4793 -6.01893 -15.0052
lowerback 6.32119 -7.50201 -7.59725
upperback -3.30451 -10.8423 -0.780121
thorax -5.75918 -5.07439 4.45034
lowerneck -15.177 4.94282 -11.3108
upperneck 7.97569 7.58261 13.3126
head 3.87966 4.2806 6.54619
rclavicle -1.90833e-014 -7.95139e-016
rhumerus 363.483 -26.2261 374.416
rradius 119.311
rwrist -38.994
rhand 10.1974 -6.03063
rfingers 7.12502
rthumb 35.3135 -392.513
lclavicle -1.90833e-014 -7.95139e-016
lhumerus 28.0004 -17.3174 -5.19169
lradius 41.5789
lwrist 5.53177
lhand -24.6941 -698.485
lfingers 7.12502
lthumb 1.80702 51.4873
rfemur -13.1183 7.0919 24.1331
rtibia 43.5625
rfoot 13.9497 -4.34742
rtoes 4.48615
lfemur -14.0311 -14.5325 -21.5638
ltibia 32.8374
lfoot -15.925 27.0883
ltoes 20.0126
3979
root 6.47908 11.7868 20.9928 83.3432 -5.88309 -14.8811
lowerback 6.4339 -7.16454 -7.6987
upperback -3.28485 -10.4119 -0.882403
thorax -5.85607 -4.85313 4.38736
lowerneck -14.8004 4.76583 -10.9628
upperneck 7.90742 7.23319 13.3373
head 3.85568 4.10865 6.46426
rclavicle -1.74931e-013 -1.19271e-014
rhumerus 365.428 -26.4931 374.703
rradius 117.296
rwrist -39.2339
rhand 10.6642 -6.204
rfingers 7.12502
rthumb 35.756 -392.58
lclavicle -1.74931e-013 -1.19271e-014
lhumerus 28.7053 -18.9735 -5.31608
lradius 42.6481
lwrist 7.0337
lhand -24.4354 -698.609
lfingers 7.12502
lthumb 2.05685 51.3609
rfemur -13.1991 7.14359 24.1839
rtibia 43.5327
rfoot 14.1389 -4.41759
rtoes 4.87146
lfemur -13.8132 -13.1356 -21.497
ltibia 32.8906
lfoot -13.6466 26.293
ltoes 18.4276
3980
root 6.46657 11.7855 20.9822 83.2253 -5.73993 -14.7359
lowerback 6.53203 -6.81534 -7.78489
upperback -3.28001 -9.96528 -0.984048
thorax -5.96497 -4.62408 4.31284
lowerneck -14.4087 4.56678 -10.5964
upperneck 7.81353 6.85409 13.3605
head 3.82485 3.92176 6.37618
rclavicle -4.13472e-014 -2.3059e-014
rhumerus 367.385 -26.6689 374.937
rradius 115.157
rwrist -39.485
rhand 11.1126 -6.38464
rfingers 7.12502
rthumb 36.1809 -392.657
lclavicle -4.13472e-014 -2.3059e-014
lhumerus 29.5168 -20.6662 -5.48277
lradius 43.7455
lwrist 8.55278
lhand -24.1453 -698.726
lfingers 7.12502
lthumb 2.33702 51.2406
rfemur -13.3757 7.21076 24.242
rtibia 43.5002
rfoot 14.2526 -4.45096
rtoes 5.25321
lfemur -13.5514 -11.7858 -21.4479
ltibia 32.9465
lfoot -11.4227 25.3621
ltoes 16.7894
3981
root 6.45349 11.783 20.9711 83.1265 -5.606 -14.5692
lowerback 6.61856 -6.45617 -7.87161
upperback -3.29216 -9.5067 -1.0874
thorax -6.08706 -4.38858 4.23331
lowerneck -13.9935 4.3436 -10.1939
upperneck 7.68677 6.44246 13.3499
head 3.7853 3.71664 6.26808
rclavicle 7.63333e-014 1.59028e-015
rhumerus 369.357 -26.7555 375.122
rradius 112.889
rwrist -39.7071
rhand 11.5271 -6.55912
rfingers 7.12502
rthumb 36.5732 -392.733
lclavicle 7.63333e-014 1.59028e-015
lhumerus 30.4312 -22.3779 -5.70303
lradius 44.8644
lwrist 9.97959
lhand -23.7854 -698.832
lfingers 7.12502
lthumb 2.68458 51.1311
rfemur -13.6435 7.29612 24.2889
rtibia 43.4566
rfoot 14.2832 -4.4694
rtoes 5.58487
lfemur -13.2548 -10.5598 -21.4332
ltibia 33.0111
lfoot -9.36962 24.3402
ltoes 15.2005
3982
root 6.43983 11.7793 20.9596 83.046 -5.4746 -14.3891
lowerback 6.69451 -6.08839 -7.95603
upperback -3.31914 -9.0372 -1.18763
thorax -6.22006 -4.1473 4.1521
lowerneck -13.5384 4.0975 -9.78703
upperneck 7.50327 6.00434 13.3436
head 3.72364 3.49698 6.15639
rclavicle -9.54166e-014 -5.56597e-015
rhumerus 371.346 -26.7521 375.259
rradius 110.503
rwrist -39.9252
rhand 11.8463 -6.73774
rfingers 7.12502
rthumb 36.8753 -392.834
lclavicle -9.54166e-014 -5.56597e-015
lhumerus 31.4375 -24.0824 -5.97883
lradius 46.0016
lwrist 11.2182
lhand -23.3088 -698.928
lfingers 7.12502
lthumb 3.14488 51.0284
rfemur -13.9943 7.39611 24.333
rtibia 43.3956
rfoot 14.243 -4.48152
rtoes 5.91161
lfemur -12.927 -9.50943 -21.4425
ltibia 33.0827
lfoot -7.53852 23.2835
ltoes 13.7251
